<svg width="1554" height="171" viewBox="0 0 1554 171" fill="none" xmlns="http://www.w3.org/2000/svg">
<path d="M108.934 133H83.6002L22.6419 41.8H22.0085V133H0.000195935V4.75H24.3835L86.2919 97.5333H86.9252V4.75H108.934V133ZM137.582 133V38H160.54V133H137.582ZM148.982 27.55C145.288 27.55 142.121 26.2833 139.482 23.75C136.949 21.1111 135.682 17.9444 135.682 14.25C135.682 10.5556 136.949 7.44166 139.482 4.90833C142.121 2.26944 145.288 0.950001 148.982 0.950001C152.676 0.950001 155.79 2.26944 158.324 4.90833C160.963 7.44166 162.282 10.5556 162.282 14.25C162.282 17.9444 160.963 21.1111 158.324 23.75C155.79 26.2833 152.676 27.55 148.982 27.55ZM186.064 133V2.26498e-06H209.022V74.7333H209.656L244.806 38H272.197L234.989 76.6333L275.522 133H248.447L218.839 91.3583L209.022 100.067V133H186.064ZM326.498 134.9C317.632 134.9 309.715 132.894 302.748 128.883C295.782 124.767 290.24 119.014 286.123 111.625C282.112 104.236 280.107 95.5278 280.107 85.5C280.107 75.3667 282.112 66.6056 286.123 59.2167C290.24 51.8278 295.782 46.1278 302.748 42.1167C309.715 38.1056 317.632 36.1 326.498 36.1C335.576 36.1 343.598 38.1056 350.565 42.1167C357.532 46.1278 362.968 51.8278 366.873 59.2167C370.884 66.6056 372.89 75.3667 372.89 85.5C372.89 95.5278 370.884 104.289 366.873 111.783C362.862 119.172 357.373 124.872 350.407 128.883C343.44 132.894 335.471 134.9 326.498 134.9ZM326.498 114.317C333.571 114.317 339.218 111.731 343.44 106.558C347.768 101.281 349.932 94.2611 349.932 85.5C349.932 76.6333 347.768 69.6139 343.44 64.4417C339.218 59.2694 333.571 56.6833 326.498 56.6833C319.637 56.6833 313.99 59.2694 309.557 64.4417C305.229 69.6139 303.065 76.6333 303.065 85.5C303.065 94.2611 305.229 101.281 309.557 106.558C313.99 111.731 319.637 114.317 326.498 114.317ZM393.266 133V2.26498e-06H416.224V133H393.266ZM467.556 134.742C457.95 134.742 450.192 132.05 444.281 126.667C438.475 121.283 435.573 114.211 435.573 105.45C435.573 96.2667 438.634 89.1417 444.756 84.075C450.984 79.0083 459.692 76.475 470.881 76.475H495.264V72.3583C495.264 66.8694 493.681 62.5944 490.514 59.5333C487.453 56.4722 483.178 54.9417 477.689 54.9417C473.045 54.9417 469.192 55.9972 466.131 58.1083C463.07 60.2194 461.064 63.2806 460.114 67.2917H436.839C438.634 57.3694 443.12 49.7167 450.298 44.3333C457.475 38.8444 466.606 36.1 477.689 36.1C490.145 36.1 499.803 39.3194 506.664 45.7583C513.631 52.1972 517.114 61.275 517.114 72.9917V133H495.739V118.75H495.106C492.573 123.817 488.878 127.775 484.023 130.625C479.273 133.369 473.784 134.742 467.556 134.742ZM472.464 116.533C476.792 116.533 480.645 115.583 484.023 113.683C487.506 111.783 490.25 109.197 492.256 105.925C494.262 102.547 495.264 98.7472 495.264 94.525V92.4667H471.989C467.345 92.4667 463.703 93.5222 461.064 95.6333C458.531 97.7444 457.264 100.647 457.264 104.342C457.264 108.142 458.637 111.15 461.381 113.367C464.126 115.478 467.82 116.533 472.464 116.533ZM635.219 134.9C624.98 134.9 616.008 133.158 608.302 129.675C600.596 126.192 594.527 121.283 590.094 114.95C585.766 108.617 583.285 101.228 582.652 92.7833H606.719C607.774 100.067 610.835 105.661 615.902 109.567C621.074 113.367 627.83 115.267 636.169 115.267C643.663 115.267 649.416 113.683 653.427 110.517C657.544 107.35 659.602 103.022 659.602 97.5333C659.602 93.2056 658.177 89.6167 655.327 86.7667C652.583 83.8111 648.202 81.6472 642.185 80.275L620.969 75.525C609.78 72.9917 601.335 68.7694 595.635 62.8583C590.041 56.9472 587.244 49.4528 587.244 40.375C587.244 32.8806 589.091 26.3361 592.785 20.7417C596.585 15.0417 601.916 10.6611 608.777 7.6C615.638 4.43333 623.66 2.85 632.844 2.85C642.238 2.85 650.419 4.48611 657.385 7.75833C664.458 11.0306 670.105 15.6222 674.327 21.5333C678.549 27.4444 680.977 34.4639 681.61 42.5917H657.544C656.277 35.8361 653.374 30.7167 648.835 27.2333C644.296 23.75 638.544 22.0083 631.577 22.0083C625.033 22.0083 619.808 23.4861 615.902 26.4417C612.102 29.2917 610.202 33.1972 610.202 38.1583C610.202 41.9583 611.521 45.2833 614.16 48.1333C616.905 50.8778 621.127 52.8833 626.827 54.15L648.994 59.2167C660.183 61.6444 668.574 65.8667 674.169 71.8833C679.763 77.9 682.56 85.8167 682.56 95.6333C682.56 107.667 678.391 117.219 670.052 124.292C661.819 131.364 650.208 134.9 635.219 134.9ZM727.91 133C721.894 133 717.197 131.417 713.819 128.25C710.441 125.083 708.752 120.281 708.752 113.842V56.3667H693.552V38H708.91V9.49999H731.394V38H751.819V56.3667H731.71V114.633H753.877V133H727.91ZM811.703 134.9C802.837 134.9 794.92 132.894 787.953 128.883C780.987 124.767 775.445 119.014 771.328 111.625C767.317 104.236 765.312 95.5278 765.312 85.5C765.312 75.3667 767.317 66.6056 771.328 59.2167C775.445 51.8278 780.987 46.1278 787.953 42.1167C794.92 38.1056 802.837 36.1 811.703 36.1C820.781 36.1 828.803 38.1056 835.77 42.1167C842.737 46.1278 848.173 51.8278 852.078 59.2167C856.09 66.6056 858.095 75.3667 858.095 85.5C858.095 95.5278 856.09 104.289 852.078 111.783C848.067 119.172 842.578 124.872 835.612 128.883C828.645 132.894 820.676 134.9 811.703 134.9ZM811.703 114.317C818.776 114.317 824.423 111.731 828.645 106.558C832.973 101.281 835.137 94.2611 835.137 85.5C835.137 76.6333 832.973 69.6139 828.645 64.4417C824.423 59.2694 818.776 56.6833 811.703 56.6833C804.842 56.6833 799.195 59.2694 794.762 64.4417C790.434 69.6139 788.27 76.6333 788.27 85.5C788.27 94.2611 790.434 101.281 794.762 106.558C799.195 111.731 804.842 114.317 811.703 114.317ZM862.004 171V152.633H878.629V38H901.587V151.525C901.587 158.069 899.898 162.925 896.521 166.092C893.143 169.364 888.34 171 882.112 171H862.004ZM890.029 27.55C886.335 27.55 883.168 26.2833 880.529 23.75C877.996 21.1111 876.729 17.9444 876.729 14.25C876.729 10.5556 877.996 7.44166 880.529 4.90833C883.168 2.26944 886.335 0.950001 890.029 0.950001C893.723 0.950001 896.837 2.26944 899.371 4.90833C902.01 7.44166 903.329 10.5556 903.329 14.25C903.329 17.9444 902.01 21.1111 899.371 23.75C896.837 26.2833 893.723 27.55 890.029 27.55ZM952.39 134.742C942.784 134.742 935.026 132.05 929.115 126.667C923.309 121.283 920.407 114.211 920.407 105.45C920.407 96.2667 923.468 89.1417 929.59 84.075C935.818 79.0083 944.526 76.475 955.715 76.475H980.098V72.3583C980.098 66.8694 978.515 62.5944 975.348 59.5333C972.287 56.4722 968.012 54.9417 962.523 54.9417C957.879 54.9417 954.026 55.9972 950.965 58.1083C947.904 60.2194 945.898 63.2806 944.948 67.2917H921.673C923.468 57.3694 927.954 49.7167 935.132 44.3333C942.309 38.8444 951.44 36.1 962.523 36.1C974.979 36.1 984.637 39.3194 991.498 45.7583C998.465 52.1972 1001.95 61.275 1001.95 72.9917V133H980.573V118.75H979.94C977.407 123.817 973.712 127.775 968.857 130.625C964.107 133.369 958.618 134.742 952.39 134.742ZM957.298 116.533C961.626 116.533 965.479 115.583 968.857 113.683C972.34 111.783 975.084 109.197 977.09 105.925C979.096 102.547 980.098 98.7472 980.098 94.525V92.4667H956.823C952.179 92.4667 948.537 93.5222 945.898 95.6333C943.365 97.7444 942.098 100.647 942.098 104.342C942.098 108.142 943.471 111.15 946.215 113.367C948.959 115.478 952.654 116.533 957.298 116.533ZM1026.59 133V38H1048.92V52.4083H1049.55C1052.29 47.2361 1056.09 43.2778 1060.95 40.5333C1065.91 37.6833 1071.61 36.2583 1078.05 36.2583C1085.02 36.2583 1091.09 37.9472 1096.26 41.325C1101.54 44.7028 1105.65 49.3472 1108.61 55.2583C1111.56 61.1694 1113.04 67.9778 1113.04 75.6833V133H1090.08V80.1167C1090.08 72.9389 1088.29 67.3444 1084.7 63.3333C1081.11 59.2167 1076.15 57.1583 1069.82 57.1583C1063.59 57.1583 1058.63 59.2167 1054.93 63.3333C1051.34 67.3444 1049.55 72.9389 1049.55 80.1167V133H1026.59ZM1178.9 134.9C1170.03 134.9 1162.12 132.894 1155.15 128.883C1148.18 124.767 1142.64 119.014 1138.53 111.625C1134.51 104.236 1132.51 95.5278 1132.51 85.5C1132.51 75.3667 1134.51 66.6056 1138.53 59.2167C1142.64 51.8278 1148.18 46.1278 1155.15 42.1167C1162.12 38.1056 1170.03 36.1 1178.9 36.1C1187.98 36.1 1196 38.1056 1202.97 42.1167C1209.93 46.1278 1215.37 51.8278 1219.28 59.2167C1223.29 66.6056 1225.29 75.3667 1225.29 85.5C1225.29 95.5278 1223.29 104.289 1219.28 111.783C1215.26 119.172 1209.78 124.872 1202.81 128.883C1195.84 132.894 1187.87 134.9 1178.9 134.9ZM1178.9 114.317C1185.97 114.317 1191.62 111.731 1195.84 106.558C1200.17 101.281 1202.33 94.2611 1202.33 85.5C1202.33 76.6333 1200.17 69.6139 1195.84 64.4417C1191.62 59.2694 1185.97 56.6833 1178.9 56.6833C1172.04 56.6833 1166.39 59.2694 1161.96 64.4417C1157.63 69.6139 1155.47 76.6333 1155.47 85.5C1155.47 94.2611 1157.63 101.281 1161.96 106.558C1166.39 111.731 1172.04 114.317 1178.9 114.317ZM1267.37 133L1230.48 38H1254.23L1279.41 106.4H1280.04L1304.9 38H1328.17L1291.28 133H1267.37ZM1371.63 134.9C1359.7 134.9 1349.99 131.944 1342.49 126.033C1335 120.122 1330.99 112.153 1330.46 102.125H1352.63C1353.37 106.875 1355.42 110.517 1358.8 113.05C1362.29 115.478 1366.88 116.692 1372.58 116.692C1377.33 116.692 1380.97 115.794 1383.5 114C1386.14 112.1 1387.46 109.408 1387.46 105.925C1387.46 100.647 1383.87 97.2167 1376.69 95.6333L1359.44 91.9917C1342.02 88.1917 1333.31 79.4833 1333.31 65.8667C1333.31 56.8944 1336.69 49.7167 1343.44 44.3333C1350.2 38.8444 1359.01 36.1 1369.89 36.1C1380.76 36.1 1389.68 38.8972 1396.64 44.4917C1403.61 50.0861 1407.41 57.6861 1408.04 67.2917H1385.88C1385.03 62.8583 1383.13 59.4806 1380.18 57.1583C1377.22 54.8361 1373.37 53.675 1368.62 53.675C1364.4 53.675 1361.02 54.5722 1358.49 56.3667C1355.95 58.0556 1354.69 60.5361 1354.69 63.8083C1354.69 66.1306 1355.53 68.0833 1357.22 69.6667C1358.91 71.1444 1361.44 72.2528 1364.82 72.9917L1382.55 76.7917C1391.31 78.6917 1397.91 81.8583 1402.34 86.2917C1406.78 90.6194 1408.99 96.5306 1408.99 104.025C1408.99 113.525 1405.62 121.072 1398.86 126.667C1392.21 132.156 1383.13 134.9 1371.63 134.9ZM1427.93 133V2.26498e-06H1450.89V74.7333H1451.52L1486.67 38H1514.06L1476.85 76.6333L1517.39 133H1490.31L1460.7 91.3583L1450.89 100.067V133H1427.93ZM1529.18 133V38H1552.14V133H1529.18ZM1540.58 27.55C1536.89 27.55 1533.72 26.2833 1531.08 23.75C1528.55 21.1111 1527.28 17.9444 1527.28 14.25C1527.28 10.5556 1528.55 7.44166 1531.08 4.90833C1533.72 2.26944 1536.89 0.950001 1540.58 0.950001C1544.28 0.950001 1547.39 2.26944 1549.93 4.90833C1552.56 7.44166 1553.88 10.5556 1553.88 14.25C1553.88 17.9444 1552.56 21.1111 1549.93 23.75C1547.39 26.2833 1544.28 27.55 1540.58 27.55Z" fill="white"/>
</svg>
